<svg version="1.1" id="contacts" xmlns="http://www.w3.org/2000/svg" xmlns:xlink="http://www.w3.org/1999/xlink" x="0px" y="0px"
	 viewBox="0 0 696 522" style="enable-background:new 0 0 696 522; width:696px;" xml:space="preserve">
<style type="text/css">
	.st0{fill:none;}
	.st1{fill:#BCD8BD;}
	.st2{fill:#C6E4C7;}
	.st3{fill:#B2CDB3;}
	.st4{fill:#F0E793;}
	.st5{fill:#9FCCE0;}
	.st6{fill:#FBF39B;}
	.st7{fill:#E3DA8B;}
</style>
<rect y="-0.5" class="st0" width="696" height="522"/>
<g id="legs_r">
	<path class="st1" d="M491.9,425.4l-18,12c-4.9,3.3-11.4,4.9-17.9,4.9c-6.4,0-12.8-1.6-17.8-4.9c0,0-0.1,0-0.1,0.1l-18.1-12v-72h-36
		v72l54.1,35.9c4.9,3.3,11.4,4.9,17.9,4.9s13-1.6,17.9-4.9l18-12c4.9-3.3,7.4-7.6,7.4-11.9v-24C499.3,417.8,496.8,422.1,491.9,425.4
		z"/>
	<path class="st2" d="M491.9,401.6L474,389.5v-72l-54,36v72l18.1,12.1l0.1-0.1c4.9,3.2,11.4,4.9,17.8,4.9c6.5,0,13-1.6,17.9-4.9
		l18-12c4.9-3.3,7.4-7.6,7.4-11.9C499.3,409.2,496.8,404.9,491.9,401.6z"/>
</g>
<g id="legs_l">
	<path class="st1" d="M365.9,437.4l-18,12c-4.9,3.3-11.4,4.9-17.9,4.9c-6.4,0-12.8-1.6-17.8-4.9c0,0-0.1,0-0.1,0.1l-18.1-12v-72h-36
		v72l54.1,35.9c4.9,3.3,11.4,4.9,17.9,4.9s13-1.6,17.9-4.9l18-12c4.9-3.3,7.4-7.6,7.4-11.9v-24C373.3,429.8,370.8,434.1,365.9,437.4
		z"/>
	<path class="st2" d="M365.9,413.6L348,401.5v-72l-54,36v72l18.1,12.1l0.1-0.1c4.9,3.2,11.4,4.9,17.8,4.9c6.5,0,13-1.6,17.9-4.9
		l18-12c4.9-3.3,7.4-7.6,7.4-11.9C373.3,421.2,370.8,416.9,365.9,413.6z"/>
</g>
<g id="tail">
	<polygon class="st3" points="258,341.5 42,197.5 42,149.5 258,293.5 	"/>
	<polygon class="st1" points="78,125.5 42,149.5 258,293.5 258,245.5 	"/>
</g>
<g id="body">
	<path class="st1" d="M486.7,124.2l-108-72c-3.5-2.4-8.1-1.7-12.7,1.3l-90,60c-4.6,3-9.2,8.4-12.7,15.4c-3.5,7-5.3,14.3-5.3,20.4
		v216.2l54,36c13.8,9.1,27.6,11.2,38.2,4c10.5-7.1,15.8-22.1,15.8-40.5V221.3c0-6.1,1.8-13.4,5.3-20.4s8.1-12.4,12.7-15.4l90-60
		C478.6,122.5,483.2,121.8,486.7,124.2z"/>
	<path class="st2" d="M492,137.7c0-6.1-1.8-11.1-5.3-13.5s-8.1-1.7-12.7,1.3l-90,60c-4.6,3-9.2,8.4-12.7,15.4s-5.3,14.3-5.3,20.4
		V365c0,18.4-5.3,33.4-15.8,40.5l126-84c10.5-7.1,15.8-22.1,15.8-40.5V137.7z"/>
</g>
<g id="head">
	<path class="st1" d="M511.1,100.6C505.8,90.1,498.9,82,492,77.5l-108-72c-4.6-3-9.2-3.7-12.7-1.3l-54,36L465,215.5l54-36v-48.2
		C519,122.1,516.4,111.1,511.1,100.6z"/>
	<path class="st3" d="M457.1,136.6c-5.3-10.5-12.2-18.6-19.1-23.1l-108-72c-4.6-3-9.2-3.7-12.7-1.3s-5.3,7.4-5.3,13.5v59.8l153,102
		v-48.2C465,158.1,462.4,147.1,457.1,136.6z"/>
	<g id="eye">
		<path class="st4" d="M377.6,105.8c1.8,3.5,4.1,6.2,6.4,7.7s4.6,1.9,6.4,0.7c1.8-1.2,2.6-3.7,2.6-6.7c0-3.1-0.9-6.7-2.6-10.2
			c-1.8-3.5-4.1-6.2-6.4-7.7s-4.6-1.9-6.4-0.7c-1.8,1.2-2.6,3.7-2.6,6.7C375,98.6,375.9,102.3,377.6,105.8z"/>
		<path class="st5" d="M379.8,104.4c1.2,2.3,2.7,4.1,4.2,5.1s3.1,1.2,4.2,0.4c1.2-0.8,1.8-2.5,1.8-4.5s-0.6-4.5-1.8-6.8
			c-1.2-2.3-2.7-4.1-4.2-5.1s-3.1-1.2-4.2-0.4c-1.2,0.8-1.8,2.5-1.8,4.5S378.6,102,379.8,104.4z"/>
	</g>
	<polygon class="st6" points="471,211.5 465,215.5 465,221.5 471,217.5 	"/>
	<polygon class="st6" points="483,203.5 477,207.5 477,213.5 483,209.5 	"/>
	<polygon class="st6" points="495,195.5 489,199.5 489,205.5 495,201.5 	"/>
	<polygon class="st6" points="507,187.5 501,191.5 501,197.5 507,193.5 	"/>
	<polygon class="st6" points="519,179.5 513,183.5 513,189.5 519,185.5 	"/>
	<polygon class="st4" points="459,211.5 465,215.5 465,221.5 459,217.5 	"/>
	<polygon class="st4" points="447,203.5 453,207.5 453,213.5 447,209.5 	"/>
	<polygon class="st4" points="435,195.5 441,199.5 441,205.5 435,201.5 	"/>
	<polygon class="st4" points="423,187.5 429,191.5 429,197.5 423,193.5 	"/>
	<polygon class="st4" points="411,179.5 417,183.5 417,189.5 411,185.5 	"/>
	<polygon class="st4" points="513,183.5 513,189.5 508.5,186.5 	"/>
	<polygon class="st4" points="501,191.5 501,197.5 496.5,194.5 	"/>
	<polygon class="st4" points="489,199.5 489,205.5 484.5,202.5 	"/>
	<polygon class="st4" points="477,207.5 477,213.5 472.5,210.5 	"/>
	<polygon class="st7" points="417,183.5 417,189.5 421.5,186.5 	"/>
	<polygon class="st7" points="429,191.5 429,197.5 433.5,194.5 	"/>
	<polygon class="st7" points="441,199.5 441,205.5 445.5,202.5 	"/>
	<polygon class="st7" points="453,207.5 453,213.5 457.5,210.5 	"/>
	<path class="st3" d="M488.1,157.3c-0.6-0.4-1.4-0.3-2.1,0.2c-0.8,0.5-1.5,1.4-2.1,2.6c-0.6,1.2-0.9,2.4-0.9,3.4v12
		c0,1,0.3,1.9,0.9,2.2c0.6,0.4,1.4,0.3,2.1-0.2c0.8-0.5,1.5-1.4,2.1-2.6c0.6-1.2,0.9-2.4,0.9-3.4v-12
		C489,158.5,488.7,157.7,488.1,157.3z"/>
	<path class="st3" d="M500.1,149.2c-0.6-0.4-1.4-0.3-2.1,0.2c-0.8,0.5-1.5,1.4-2.1,2.6c-0.6,1.2-0.9,2.4-0.9,3.4v12
		c0,1,0.3,1.9,0.9,2.2c0.6,0.4,1.4,0.3,2.1-0.2c0.8-0.5,1.5-1.4,2.1-2.6s0.9-2.4,0.9-3.4v-12C501,150.5,500.7,149.6,500.1,149.2z"/>
</g>
<animateTransform
	xlink:href="#tail"
	attributeName="transform"
	type="translate"
    from="0 0"
    to="0 0"
    dur="1s"
	begin="0s"
	values="30 -20; 0 0; 30 -20"
	keyTimes="0; 0.5; 1"
	repeatCount="indefinite"/>
<animateTransform
	xlink:href="#head"
	attributeName="transform"
	type="translate"
    from="0 0"
    to="0 0"
    dur="1s"
	begin="0s"
	values="-15 10; 0 0; -15 10"
	keyTimes="0; 0.5; 1"
	repeatCount="indefinite"/>
<animateTransform
	xlink:href="#legs_r"
	attributeName="transform"
	type="translate"
    from="0 0"
    to="0 0"
    dur="1s"
	begin="0s"
	values="0 0; -45 -30; 0 0"
	keyTimes="0; 0.5; 1"
	repeatCount="indefinite"/>
<animateTransform
	xlink:href="#legs_l"
	attributeName="transform"
	type="translate"
    from="0 0"
    to="0 0"
    dur="1s"
	begin="0s"
	values="0 0; 45 30; 0 0"
	keyTimes="0; 0.5; 1"
	repeatCount="indefinite"/>
</svg>